<svg width="88" height="24" viewBox="0 0 88 24" fill="none" xmlns="http://www.w3.org/2000/svg">
  <path d="M3 12C5 8 7 8 9 12C11 16 13 16 15 12C17 8 19 8 21 12" stroke="#2366DA" stroke-width="2.5" stroke-linecap="round"/>
  <path d="M22 12C24 8 26 8 28 12C30 16 32 16 34 12" stroke="#2366DA" stroke-width="2.5" stroke-linecap="round"/>
  <path d="M43.7 6.6V18H41V10.9L37.9 16H37.4L34.3 10.9V18H31.6V6.6H34.2L37.7 12.4L41.1 6.6H43.7ZM48.6 9.2V18H45.9V9.2H48.6ZM46 6.9C46 6 46.8 5.3 47.7 5.3C48.6 5.3 49.3 6 49.3 6.9C49.3 7.8 48.6 8.5 47.7 8.5C46.8 8.5 46 7.8 46 6.9ZM56.3 9C58.3 9 59.7 10.4 59.7 12.8V18H57V13.2C57 12.1 56.4 11.5 55.4 11.5C54.3 11.5 53.5 12.2 53.5 13.7V18H50.8V9.2H53.5V10.2C54 9.4 55 9 56.3 9ZM67.7 9C69.7 9 71.1 10.4 71.1 12.8V18H68.4V13.2C68.4 12.1 67.8 11.5 66.8 11.5C65.7 11.5 64.9 12.2 64.9 13.7V18H62.2V9.2H64.9V10.2C65.4 9.4 66.4 9 67.7 9ZM74.8 14.6C75.1 15.7 76 16.1 77.2 16.1C78 16.1 78.7 15.8 79.1 15.3L81.3 16.6C80.4 17.7 79 18.3 77.1 18.3C74.1 18.3 72.2 16.4 72.2 13.6C72.2 10.8 74.2 8.9 76.9 8.9C79.4 8.9 81.4 10.9 81.4 13.6C81.4 14 81.4 14.3 81.3 14.6H74.8ZM74.8 12.6H78.8C78.5 11.4 77.7 11 76.9 11C75.8 11 75 11.6 74.8 12.6ZM88 9.2L84.8 18.2C83.8 20.9 82.3 21.8 79.9 21.7V19.2C81.2 19.2 81.8 18.8 82.2 17.8L78.7 9.2H81.7L83.6 14.4L85.3 9.2H88Z" fill="#2366DA"/>
</svg>
