<svg width="148" height="36" viewBox="0 0 148 36" fill="none" xmlns="http://www.w3.org/2000/svg">
  <path d="M18.2 8L21.8 20.2L25.5 8H30L23.8 28H19.9L16 16.4L12.2 28H8.3L2 8H6.6L10.4 20.2L14 8H18.2ZM41.9 13C46.3 13 49.9 16.5 49.9 20.9C49.9 25.4 46.3 28.9 41.9 28.9C37.5 28.9 33.9 25.4 33.9 20.9C33.9 16.5 37.5 13 41.9 13ZM41.9 24.8C44.1 24.8 45.8 23.1 45.8 20.9C45.8 18.8 44.1 17 41.9 17C39.8 17 38.1 18.8 38.1 20.9C38.1 23.1 39.8 24.8 41.9 24.8ZM61.8 13C66.2 13 69.8 16.5 69.8 20.9C69.8 25.4 66.2 28.9 61.8 28.9C57.4 28.9 53.8 25.4 53.8 20.9C53.8 16.5 57.4 13 61.8 13ZM61.8 24.8C64 24.8 65.7 23.1 65.7 20.9C65.7 18.8 64 17 61.8 17C59.7 17 58 18.8 58 20.9C58 23.1 59.7 24.8 61.8 24.8Z" fill="#1B6FE6"/>
  <path d="M84.2 8H88.4L95.7 28H91.2L90 24.5H82.6L81.4 28H76.8L84.2 8ZM83.9 20.7H88.7L86.3 13.7L83.9 20.7ZM106.3 18.2L113.3 28H108.2L102.8 20.1V28H98.5V8H102.8V15.8L107.9 8H113L106.3 18.2ZM123.6 13C128 13 131.6 16.5 131.6 20.9C131.6 25.4 128 28.9 123.6 28.9C119.2 28.9 115.6 25.4 115.6 20.9C115.6 16.5 119.2 13 123.6 13ZM123.6 24.8C125.8 24.8 127.5 23.1 127.5 20.9C127.5 18.8 125.8 17 123.6 17C121.5 17 119.8 18.8 119.8 20.9C119.8 23.1 121.5 24.8 123.6 24.8ZM143.6 8H148L141.3 28H137.6L133.8 15.8L130 28H126.3L119.6 8H124.1L128.2 20.3L131.9 8H135.6L139.4 20.3L143.6 8Z" fill="#F48A18"/>
</svg>
